<svg width="450" height="48" viewBox="0 0 450 48" fill="none" xmlns="http://www.w3.org/2000/svg">
<path d="M37.9088 19.334L32.8048 23.916L37.9088 27.454V47H0.324769V0.657999H37.9668L37.9088 19.334ZM23.6988 28.556H10.7068V36.676H26.7148V31.398L23.6988 28.556ZM23.6988 18.174L26.7148 15.216V11.04H10.7068V18.174H23.6988ZM101.685 0.599999V33.428H95.5952L99.7712 47H88.8672L84.6912 33.428H75.0052V47H64.6232V0.599999H101.685ZM91.3032 23.104V10.982H75.0052V23.104H91.3032ZM128.355 47V0.657999H167.215L162.401 29.542H138.737V36.676H164.721V47H128.355ZM138.737 19.16H153.237L154.571 11.04H138.737V19.16ZM230.092 47H219.71V42.302L204.34 47H193.958V0.599999H204.34V35.69L219.71 30.992V0.599999H230.092V35.69L245.462 30.992V0.599999H255.844V47H245.462V42.302L230.092 47ZM283.347 47V0.657999H322.207L317.393 29.542H293.729V36.676H319.713V47H283.347ZM293.729 19.16H308.229L309.563 11.04H293.729V19.16ZM385.953 0.599999V33.428H379.863L384.039 47H373.135L368.959 33.428H359.273V47H348.891V0.599999H385.953ZM375.571 23.104V10.982H359.273V23.104H375.571ZM449.685 0.657999V47.058H412.681V36.676H439.303V29.948H412.623V0.657999H423.063V19.508H439.303V0.657999H449.685Z" fill="black"/>
</svg>
