<svg width="578" height="160" viewBox="0 0 578 160" fill="none" xmlns="http://www.w3.org/2000/svg">
<path d="M561.182 41.302H528.89V127H501.98V41.302H468.722V16.6H561.182V41.302Z" fill="black"/>
<path d="M358.08 127.138V16.738H444.606V41.44H382.782V58.414H431.082V83.116H382.782V127.138H358.08Z" fill="black"/>
<path d="M268.451 41.44H251.201V16.738H334.001V127H309.299V108.37H276.455L271.487 127H246.095L268.451 41.44ZM309.299 83.668V41.44H293.843L282.803 83.668H309.299Z" fill="black"/>
<path d="M223.92 16.6V87.118H209.43L219.366 127H193.422L183.486 87.118H156.3V127H131.598V16.6H223.92ZM199.218 62.692V41.302H156.3V62.692H199.218Z" fill="black"/>
<path d="M19.1709 127.138V16.738H105.559V41.44H43.8729V102.436H105.559V127.138H19.1709Z" fill="black"/>
</svg>
