<svg width="17" height="31" viewBox="0 0 17 31" fill="none" xmlns="http://www.w3.org/2000/svg">
<path d="M16 9.44143C16 11.6574 15.0815 16.8254 13.5602 21.4635C12.802 23.7751 11.9165 25.8838 10.963 27.3943C10.4859 28.15 10.0179 28.7138 9.57579 29.0794C9.1361 29.443 8.78127 29.5638 8.5 29.5638C8.21873 29.5638 7.8639 29.443 7.42421 29.0794C6.9821 28.7138 6.51408 28.15 6.03703 27.3943C5.0835 25.8838 4.19798 23.7751 3.43979 21.4635C1.91852 16.8254 1 11.6574 1 9.44143C1 5.26051 4.36432 1.88293 8.5 1.88293C12.6357 1.88293 16 5.26051 16 9.44143Z" stroke="#F5C143" stroke-width="2"/>
<path d="M12 11.2712C12 13.1677 10.4431 14.7233 8.5 14.7233C6.55689 14.7233 5 13.1677 5 11.2712C5 9.37472 6.55689 7.81909 8.5 7.81909C10.4431 7.81909 12 9.37472 12 11.2712Z" stroke="#F5C143" stroke-width="2"/>
</svg>
