<svg width="30" height="31" viewBox="0 0 30 31" fill="none" xmlns="http://www.w3.org/2000/svg">
<rect x="18.2831" y="21.0002" width="10" height="3" rx="1.5" fill="#F5C143"/>
<path d="M17.6266 28.6767C17.8215 29.6385 17.1992 30.5874 16.2212 30.6673C13.3798 30.8994 10.5175 30.3176 7.9769 28.9713C4.91045 27.3465 2.50226 24.7087 1.16264 21.5073C-0.176974 18.306 -0.365122 14.7392 0.630253 11.4147C1.62563 8.09016 3.74294 5.21362 6.62143 3.27519C9.49992 1.33677 12.9615 0.456386 16.4163 0.784054C19.8711 1.11172 23.1055 2.62717 25.5682 5.07218C28.0309 7.51719 29.5697 10.7405 29.9224 14.1928C30.2145 17.0532 29.6775 19.9243 28.3941 22.4698C27.9523 23.3461 26.839 23.5659 26.0211 23.0236V23.0236C25.2032 22.4814 24.9941 21.3826 25.4034 20.4907C26.2504 18.6446 26.5956 16.5957 26.387 14.554C26.1179 11.9195 24.9437 9.45986 23.0644 7.59411C21.1852 5.72836 18.7171 4.57194 16.0808 4.32191C13.4444 4.07187 10.803 4.74367 8.60644 6.22286C6.40991 7.70204 4.79422 9.89708 4.03466 12.434C3.27511 14.9709 3.41868 17.6926 4.44092 20.1355C5.46316 22.5784 7.30082 24.5913 9.64078 25.8312C11.4543 26.7921 13.4827 27.2427 15.5117 27.1519C16.4921 27.108 17.4316 27.7149 17.6266 28.6767V28.6767Z" fill="#F5C143"/>
<path d="M10.9588 13.6921C11.191 13.0409 10.6983 12.3563 10.007 12.3563V12.3563C9.45471 12.3563 9 11.9085 9 11.3563V10C9 9.44772 9.44772 9 10 9H20C20.5523 9 21 9.44772 21 10V23C21 23.5523 20.5523 24 20 24H18.513C17.9607 24 17.513 23.5523 17.513 23V22.45C17.513 21.8977 17.0653 21.45 16.513 21.45H13.8766C13.3243 21.45 12.8766 21.8977 12.8766 22.45V23C12.8766 23.5523 12.4289 24 11.8766 24H10.3896C9.83733 24 9.38961 23.5523 9.38961 23V18.2667C9.38961 18.1522 9.40925 18.0387 9.44768 17.9309L10.9588 13.6921ZM16.513 18.0938C17.0653 18.0938 17.513 17.646 17.513 17.0938V13.3562C17.513 12.804 17.0653 12.3563 16.513 12.3563H15.5477C15.1068 12.3563 14.7179 12.645 14.5904 13.067L13.461 16.8045C13.267 17.4465 13.7476 18.0938 14.4183 18.0938H16.513Z" fill="#F5C143"/>
</svg>
