<svg width="47" height="30" viewBox="0 0 47 30" fill="none" xmlns="http://www.w3.org/2000/svg">
<path d="M45.5 1.5V28.5H1.5V1.5H23.5H45.5Z" fill="#F5C143" stroke="#981E14" stroke-width="3"/>
<path d="M22.1947 18.2655C22.8936 18.7103 23.8207 18.5042 24.2655 17.8053C24.7103 17.1064 24.5042 16.1793 23.8053 15.7345L22.1947 18.2655ZM0.194687 4.26549L22.1947 18.2655L23.8053 15.7345L1.80531 1.73451L0.194687 4.26549Z" fill="#981E14"/>
<path d="M23.8194 18.2564C23.1255 18.709 22.1961 18.5133 21.7436 17.8194C21.291 17.1255 21.4867 16.1961 22.1806 15.7436L23.8194 18.2564ZM22.1806 15.7436L45.1806 0.743583L46.8194 3.25642L23.8194 18.2564L22.1806 15.7436Z" fill="#981E14"/>
</svg>
